<svg viewBox="0 0 43 31" fill="none" xmlns="http://www.w3.org/2000/svg">
    <style>
        path { fill: #1B0905; }
        @media (prefers-color-scheme: dark) {
            path { fill: #FFFFFF; }
        }
    </style>
    <path d="M24.2272 15.6163C25.9306 16.8936 28.8625 18.3046 33.5045 18.3046C36.067 18.3046 38.2293 17.9816 39.757 17.3718C41.2508 16.7757 42.0735 15.9212 42.0735 14.9681C42.0735 14.015 41.2519 13.1616 39.7593 12.5666C38.2327 11.958 36.0692 11.6361 33.5045 11.6361C28.8546 11.6361 25.8921 13.1593 24.2238 14.4399C22.4457 12.8918 21.8031 11.1692 21.8031 10.0404C21.8031 8.91163 22.4457 7.18899 24.2238 5.64089C25.8921 6.92153 28.8534 8.44471 33.5045 8.44471C36.0692 8.44471 38.2316 8.12285 39.7593 7.51426C41.2519 6.91927 42.0735 6.06588 42.0735 5.11276C42.0735 4.15851 41.2508 3.30512 39.757 2.709C38.2293 2.09927 36.067 1.77628 33.5045 1.77628C28.8636 1.77628 25.9306 3.18726 24.2272 4.4645C22.6666 3.07733 21.8643 1.43855 21.8643 0.0400391H20.2436C20.2436 1.43855 19.4412 3.07619 17.8807 4.4645C16.1773 3.18726 13.2454 1.77628 8.60334 1.77628C6.04091 1.77628 3.87854 2.09927 2.35083 2.709C0.85599 3.30399 0.0332031 4.15737 0.0332031 5.11163C0.0332031 6.06475 0.854857 6.91813 2.34857 7.51312C3.87514 8.12171 6.03864 8.44357 8.60334 8.44357C13.2533 8.44357 16.2158 6.9204 17.8841 5.63975C19.6622 7.18786 20.3048 8.9105 20.3048 10.0393C20.3048 11.1681 19.6622 12.8907 17.8841 14.4388C16.2158 13.1582 13.2545 11.635 8.60334 11.635C6.03864 11.635 3.87628 11.9569 2.34857 12.5654C0.854857 13.1616 0.0332031 14.0138 0.0332031 14.9681C0.0332031 15.9223 0.85599 16.7757 2.3497 17.3718C3.87741 17.9816 6.03978 18.3046 8.6022 18.3046C13.2431 18.3046 16.1762 16.8936 17.8795 15.6163C19.4401 17.0035 20.2425 18.6423 20.2425 20.0408C20.2425 21.4393 19.4401 23.0769 17.8795 24.4653C16.1762 23.188 13.2443 21.777 8.6022 21.777C6.03978 21.777 3.87741 22.1 2.3497 22.7098C0.85599 23.3047 0.0332031 24.1593 0.0332031 25.1124C0.0332031 26.0655 0.854857 26.9189 2.34857 27.5139C3.87514 28.1225 6.03864 28.4443 8.60334 28.4443C13.2533 28.4443 16.2158 26.9212 17.8841 25.6405C19.6622 27.1886 20.3048 28.9113 20.3048 30.04H21.8042C21.8042 28.9101 22.4468 27.1886 24.225 25.6405C25.8932 26.9212 28.8546 28.4443 33.5057 28.4443C36.0704 28.4443 38.2327 28.1225 39.7605 27.5139C41.253 26.9189 42.0747 26.0655 42.0747 25.1124C42.0747 24.1581 41.2519 23.3047 39.7582 22.7086C38.2305 22.0989 36.0681 21.7759 33.5057 21.7759C28.8648 21.7759 25.9317 23.1869 24.2284 24.4641C22.6678 23.0769 21.8654 21.4382 21.8654 20.0397C21.8654 18.6411 22.6678 17.0035 24.2284 15.6152L24.2272 15.6163Z"/>
</svg>
