<?xml version="1.0" encoding="UTF-8"?>
<svg id="Layer_1" data-name="Layer 1" xmlns="http://www.w3.org/2000/svg" version="1.1" viewBox="0 0 32 32">
  <defs>
    <style>
      .cls-1 {
        fill: #ff4dfb;
        stroke-width: 0px;
      }
    </style>
  </defs>
  <path class="cls-1" d="M18.1,16.4c1.1.8,3.1,1.9,6.2,1.9s3.2-.2,4.2-.6c1-.4,1.6-1,1.6-1.6s-.6-1.2-1.6-1.6c-1-.4-2.5-.6-4.2-.6h0c-3.1,0-5.1,1-6.3,1.8-1.1-.9-1.6-2-1.6-3s.5-2,1.6-3c1.1.9,3.1,1.8,6.3,1.8h0c1.7,0,3.2-.2,4.2-.6,1-.4,1.6-1,1.6-1.6s-.6-1.2-1.6-1.6c-1-.4-2.5-.6-4.2-.6-3.1,0-5.1,1-6.2,1.9-.8-.7-1.6-1.8-1.6-3h-1c0,1.1-.8,2.2-1.6,3-1.1-.8-3.1-1.9-6.2-1.9s-3.2.2-4.2.6c-1,.4-1.6,1-1.6,1.6,0,.6.6,1.2,1.6,1.6,1,.4,2.5.6,4.2.6h0c3.1,0,5.1-1,6.3-1.8,1.1.9,1.6,2,1.6,3s-.5,2-1.6,3c-1.1-.9-3.1-1.8-6.3-1.8h0c-1.7,0-3.2.2-4.2.6-1,.4-1.6,1-1.6,1.6,0,.6.6,1.2,1.6,1.6,1,.4,2.5.6,4.2.6,3.1,0,5.1-1,6.2-1.9.8.7,1.6,1.8,1.6,3s-.8,2.2-1.6,3c-1.1-.8-3.1-1.9-6.2-1.9s-3.2.2-4.2.6c-1,.4-1.6,1-1.6,1.6,0,.6.6,1.2,1.6,1.6,1,.4,2.5.6,4.2.6h0c3.1,0,5.1-1,6.3-1.8,1.1.9,1.6,2,1.6,3h1c0-.9.5-2,1.6-3,1.1.9,3.1,1.8,6.3,1.8,1.7,0,3.2-.2,4.2-.6,1-.4,1.6-1,1.6-1.6s-.6-1.2-1.6-1.6c-1-.4-2.5-.6-4.2-.6-3.1,0-5.1,1-6.2,1.9-.8-.7-1.6-1.8-1.6-3s.8-2.2,1.6-3ZM24.4,14.4h0c2.1,0,3.3.3,4,.6.7.3,1.2.7,1.2,1s-.4.8-1.2,1c-.7.3-1.9.6-4,.6s-4.4-.7-5.8-1.6c1.1-.8,2.9-1.6,5.8-1.6ZM24.4,7.6c2.1,0,3.3.3,4,.6.7.3,1.2.7,1.2,1s-.4.8-1.2,1c-.7.3-1.9.6-4,.6h0c-2.9,0-4.7-.8-5.8-1.6,1.3-.9,3.3-1.6,5.8-1.6ZM7.6,10.9h0c-2.1,0-3.3-.3-4-.6-.7-.3-1.2-.7-1.2-1,0-.4.4-.8,1.2-1,.7-.3,1.9-.6,4-.6s4.4.7,5.8,1.6c-1.1.8-2.9,1.6-5.8,1.6ZM7.6,17.6c-2.1,0-3.3-.3-4-.6-.7-.3-1.2-.7-1.2-1,0-.4.4-.8,1.2-1,.7-.3,1.9-.6,4-.6h0c2.9,0,4.7.8,5.8,1.6-1.3.9-3.3,1.6-5.8,1.6ZM7.6,24.4c-2.1,0-3.3-.3-4-.6-.7-.3-1.2-.7-1.2-1,0-.4.4-.8,1.2-1,.7-.3,1.9-.6,4-.6s4.4.7,5.8,1.6c-1.1.8-2.9,1.6-5.8,1.6ZM24.4,21.1c2.1,0,3.3.3,4,.6.7.3,1.2.7,1.2,1s-.4.8-1.2,1c-.7.3-1.9.6-4,.6-2.9,0-4.7-.8-5.8-1.6,1.3-.9,3.3-1.6,5.8-1.6ZM14.4,9.3c.8-.8,1.4-1.7,1.6-2.6.2.9.8,1.8,1.6,2.6-.8.8-1.4,1.6-1.6,2.5-.2-.9-.8-1.8-1.6-2.5ZM17.6,22.7c-.8.8-1.4,1.6-1.6,2.5-.2-.9-.8-1.8-1.6-2.5.8-.8,1.4-1.7,1.6-2.6.2.9.8,1.8,1.6,2.6ZM16,18.6c-.2-.9-.8-1.8-1.6-2.6.8-.8,1.4-1.6,1.6-2.5.2.9.8,1.8,1.6,2.5-.8.8-1.4,1.7-1.6,2.6Z"/>
</svg>