<svg width="658" height="472" viewBox="0 0 658 472" fill="none" xmlns="http://www.w3.org/2000/svg">
<path d="M328.408 0.0610046C323.408 40.7277 276.308 122.061 127.908 122.061C-57.5919 122.061 -25.5919 29.061 127.908 29.061C281.408 29.061 328.408 111.561 328.408 155.061C328.408 198.561 280.908 281.061 127.908 281.061C-25.0919 281.061 -49.5919 187.561 127.908 187.561C305.408 187.561 328.408 302.061 328.408 316.561C328.408 331.061 305.408 445.061 127.908 445.061C-49.5919 445.061 -29.0919 351.061 127.908 351.061C284.908 351.061 328.408 440.561 328.408 470.561H329.501C329.501 440.561 373.001 351.061 530.001 351.061C687.001 351.061 707.501 445.061 530.001 445.061C352.501 445.061 329.501 331.061 329.501 316.561C329.501 302.061 352.501 187.561 530.001 187.561C707.501 187.561 683.001 281.061 530.001 281.061C377.001 281.061 329.501 198.561 329.501 155.061C329.501 111.561 376.501 29.061 530.001 29.061C683.501 29.061 715.501 122.061 530.001 122.061C381.601 122.061 334.501 40.7277 329.501 0.0610046" stroke="black"/>
</svg>
